# xmcd
#
# Track frame offsets:
#	150
#	20158
#	36122
#	43570
#	58869
#	67304
#	85682
#	93551
#	101325
#	111613
#	130686
#	145011
#	153383
#	163446
#	175009
#	190251
#	206451
#	215511
#	224250
#
# Disc length: 3138 seconds
#
# Revision: 1
# Processed by: cddbd v1.5.2PL0 Copyright (c) Steve Scherf et al.
# Submitted via: EZCDAudioConverter 5.0.0.1
#
DISCID=1c0c4013
DTITLE=Various Artist - 형재는 용감했다 OST
DYEAR=2008
DGENRE=Musical
TTITLE0=곡(哭) l
TTITLE1=곡(哭) ll
TTITLE2=축시(丑時) 춘배 l
TTITLE3=축시(丑時) 춘배 ll
TTITLE4=난 니가 싫어
TTITLE5=주몽의 결혼식
TTITLE6=로또 공개방송
TTITLE7=New Life
TTITLE8=문상객의 분노
TTITLE9=어머니
TTITLE10=로라의 사연
TTITLE11=나를 선택해 l
TTITLE12=나를 선택해 ll
TTITLE13=포기해
TTITLE14=엄마의 일기장
TTITLE15=순례의 기억
TTITLE16=승천
TTITLE17=난 니가 싫어 (Ver.2)
TTITLE18=순례의 기억 (Inst.)
EXTD=
EXTT0=
EXTT1=
EXTT2=
EXTT3=
EXTT4=
EXTT5=
EXTT6=
EXTT7=
EXTT8=
EXTT9=
EXTT10=
EXTT11=
EXTT12=
EXTT13=
EXTT14=
EXTT15=
EXTT16=
EXTT17=
EXTT18=
PLAYORDER=
